<?xml version="1.0" encoding="UTF-8" standalone="no"?>
<!-- Generator: Adobe Illustrator 16.0.4, SVG Export Plug-In . SVG Version: 6.00 Build 0)  -->

<svg
   xmlns:dc="http://purl.org/dc/elements/1.1/"
   xmlns:cc="http://creativecommons.org/ns#"
   xmlns:rdf="http://www.w3.org/1999/02/22-rdf-syntax-ns#"
   xmlns:svg="http://www.w3.org/2000/svg"
   xmlns="http://www.w3.org/2000/svg"
   xmlns:sodipodi="http://sodipodi.sourceforge.net/DTD/sodipodi-0.dtd"
   xmlns:inkscape="http://www.inkscape.org/namespaces/inkscape"
   version="1.1"
   id="default"
   x="0px"
   y="0px"
   width="122.5"
   height="43.389"
   viewBox="0 0 122.5 43.389"
   enable-background="new 0 0 250 90"
   xml:space="preserve"
   inkscape:version="0.48.2 r9819"
   sodipodi:docname="vpr-logo.svg"><metadata
   id="metadata3112"><rdf:RDF><cc:Work
       rdf:about=""><dc:format>image/svg+xml</dc:format><dc:type
         rdf:resource="http://purl.org/dc/dcmitype/StillImage" /></cc:Work></rdf:RDF></metadata><defs
   id="defs3110" /><sodipodi:namedview
   pagecolor="#323232"
   bordercolor="#666666"
   borderopacity="1"
   objecttolerance="10"
   gridtolerance="10"
   guidetolerance="10"
   inkscape:pageopacity="0.82745098"
   inkscape:pageshadow="2"
   inkscape:window-width="736"
   inkscape:window-height="480"
   id="namedview3108"
   showgrid="false"
   inkscape:zoom="1.288"
   inkscape:cx="256.59938"
   inkscape:cy="76.055901"
   inkscape:window-x="0"
   inkscape:window-y="0"
   inkscape:window-maximized="0"
   inkscape:current-layer="default"
   fit-margin-top="0"
   fit-margin-left="0"
   fit-margin-right="0"
   fit-margin-bottom="0" />
<g
   id="g3096"
   transform="matrix(0.5,0,0,0.5,-1.25,-1.4265)">
	<g
   id="g3098">
		<path
   d="m 190.575,13.159 c 1.87,1.034 2.799,2.794 2.799,5.276 0,2.574 -0.957,4.432 -2.871,5.559 -1.917,1.13 -5.12,1.695 -9.619,1.695 H 165.735 V 11.606 h 14.822 c 4.813,0 8.154,0.52 10.018,1.553 z M 168.139,54.018 V 52.815 C 167.16,52.592 166.51,52.305 166.201,51.96 165.89,51.606 165.734,50.955 165.734,50 V 33.07 h 13.358 L 189.32,48.8 c 0.283,0.417 0.547,0.894 0.777,1.435 0.238,0.542 0.354,0.861 0.354,0.957 0,0.414 -0.172,0.769 -0.52,1.059 -0.35,0.287 -0.854,0.479 -1.517,0.564 v 1.203 h 18.007 v -1.203 c -1.664,-0.955 -2.878,-1.771 -3.646,-2.462 -0.768,-0.679 -1.444,-1.487 -2.045,-2.409 L 190.26,32.786 c 4.568,-1.267 7.941,-3.148 10.135,-5.639 2.188,-2.487 3.275,-5.654 3.275,-9.495 0,-4.66 -1.763,-8.292 -5.294,-10.896 -3.532,-2.602 -8.494,-3.903 -14.89,-3.903 h -30.812 v 1.202 c 0.982,0.259 1.631,0.579 1.938,0.958 0.313,0.378 0.471,1.02 0.471,1.91 v 43.075 c 0,0.926 -0.162,1.581 -0.489,1.961 -0.323,0.38 -0.969,0.668 -1.915,0.854 v 1.203 h 15.459 v 0.002 h 0.001 z"
   id="path3100"
   inkscape:connector-curvature="0"
   style="fill:#ffffff" />
		<path
   d="m 130.376,12.955 c 1.944,0.977 2.915,2.589 2.915,4.827 0,2.275 -1.004,3.939 -3.014,4.998 -2.016,1.058 -5.175,1.583 -9.489,1.583 h -14.62 V 11.486 h 14.24 c 4.695,0 8.019,0.493 9.968,1.469 z m -21.805,41.113 v -1.203 c -0.981,-0.225 -1.628,-0.51 -1.938,-0.857 -0.312,-0.354 -0.465,-1.006 -0.465,-1.96 V 33.119 h 18.549 c 5.835,0 10.438,-1.377 13.812,-4.139 3.375,-2.759 5.062,-6.518 5.062,-11.278 0,-4.663 -1.759,-8.295 -5.279,-10.897 -3.519,-2.6 -8.479,-3.903 -14.889,-3.903 H 93.12 v 1.2 c 0.979,0.259 1.625,0.579 1.936,0.963 0.312,0.379 0.466,1.021 0.466,1.912 v 43.07 c 0,0.926 -0.163,1.576 -0.49,1.96 -0.328,0.382 -0.964,0.668 -1.912,0.856 v 1.203 h 15.451 v 0.002 z"
   id="path3102"
   style="fill:#ffffff"
   inkscape:connector-curvature="0" />
		<path
   d="M 33.108,9.133 C 32.377,7.415 31.709,6.24 31.104,5.601 30.503,4.964 29.724,4.504 28.769,4.218 V 3.016 h 17.115 v 1.201 c -0.923,0.353 -1.551,0.677 -1.883,0.98 -0.33,0.299 -0.498,0.688 -0.498,1.168 0,0.284 0.143,0.795 0.429,1.525 0.062,0.128 0.094,0.206 0.094,0.237 L 58.089,39.43 71.533,8.178 C 71.692,7.762 71.808,7.415 71.889,7.129 71.967,6.846 72.007,6.59 72.007,6.366 72.007,5.887 71.831,5.497 71.48,5.198 71.132,4.895 70.498,4.57 69.578,4.218 V 3.016 H 86.12 v 1.201 c -1.783,0.54 -3.114,1.892 -4.005,4.057 -0.161,0.348 -0.287,0.619 -0.381,0.809 L 64.429,48.974 c -0.064,0.19 -0.112,0.436 -0.141,0.735 -0.031,0.305 -0.049,0.617 -0.049,0.934 0,0.572 0.167,1.037 0.501,1.391 0.328,0.344 0.943,0.669 1.833,0.949 v 1.201 H 48.936 v -1.201 c 0.825,-0.28 1.412,-0.599 1.761,-0.936 0.35,-0.332 0.527,-0.765 0.527,-1.311 0,-0.223 -0.023,-0.449 -0.073,-0.688 -0.047,-0.24 -0.165,-0.598 -0.358,-1.075 L 33.108,9.133 z"
   id="path3104"
   style="fill:#ffffff"
   inkscape:connector-curvature="0" />
		<path
   d="m 2.5,89.631 c 0,0 35.518,-28.08 127.036,-32.204 79.203,-3.562 117.964,9.726 117.964,9.726 0,0 -36.025,-8.653 -117.439,-3.904 C 38.802,68.555 14.903,83.669 2.5,89.631 z"
   id="path3106"
   style="fill:#ffffff"
   inkscape:connector-curvature="0" />
	</g>
</g>
</svg>