<?xml version="1.0" encoding="UTF-8" standalone="no"?>
<svg
   xmlns:dc="http://purl.org/dc/elements/1.1/"
   xmlns:cc="http://creativecommons.org/ns#"
   xmlns:rdf="http://www.w3.org/1999/02/22-rdf-syntax-ns#"
   xmlns:svg="http://www.w3.org/2000/svg"
   xmlns="http://www.w3.org/2000/svg"
   xmlns:sodipodi="http://sodipodi.sourceforge.net/DTD/sodipodi-0.dtd"
   xmlns:inkscape="http://www.inkscape.org/namespaces/inkscape"
   version="1.1"
   id="Icon"
   x="0px"
   y="0px"
   viewBox="-14 -14 48 48"
   enable-background="new -14 -14 48 48"
   xml:space="preserve"
   inkscape:version="0.48.2 r9819"
   width="100%"
   height="100%"
   sodipodi:docname="webicon-facebook.svg"><metadata
   id="metadata4087"><rdf:RDF><cc:Work
       rdf:about=""><dc:format>image/svg+xml</dc:format><dc:type
         rdf:resource="http://purl.org/dc/dcmitype/StillImage" /></cc:Work></rdf:RDF></metadata><defs
   id="defs4085" /><sodipodi:namedview
   pagecolor="#3daf35"
   bordercolor="#666666"
   borderopacity="1"
   objecttolerance="10"
   gridtolerance="10"
   guidetolerance="10"
   inkscape:pageopacity="0.84705882"
   inkscape:pageshadow="2"
   inkscape:window-width="938"
   inkscape:window-height="666"
   id="namedview4083"
   showgrid="false"
   inkscape:zoom="4.9166667"
   inkscape:cx="24"
   inkscape:cy="24"
   inkscape:window-x="0"
   inkscape:window-y="0"
   inkscape:window-maximized="0"
   inkscape:current-layer="Icon" />
<linearGradient
   id="SVGID_1_"
   gradientUnits="userSpaceOnUse"
   x1="90.0527"
   y1="-99.7603"
   x2="90.0527"
   y2="-106.3809"
   gradientTransform="matrix(7.2338,0,0,-7.2338,-627.4998,-721.5619)">
	<stop
   offset="0"
   style="stop-color:#4B71B8"
   id="stop4075" />
	<stop
   offset="1"
   style="stop-color:#293F7E"
   id="stop4077" />
</linearGradient>
<path
   style="fill:#ffffff;fill-opacity:0.7"
   d="m 5.90625,0.09375 c -3.314,0 -6,2.66075 -6,5.96875 l 0,35.9375 c 0,3.3 2.685,5.96875 6,5.96875 l 19.9375,0 0,-19.375 -4.375,0 0,-6.71875 4.25,0 c 0,-1.99 0.019,-3.74875 0,-5.59375 0,-5.3 4.05675,-6.84375 7.71875,-6.84375 l 6.1875,0 0,6.65625 c -0.519,0.003 -2.55175,0 -3.59375,0 -0.128,0 -2.3125,-0.12425 -2.3125,1.96875 0.016,0.854 0,3.8125 0,3.8125 l 5.9375,0 -0.5,6.59375 -5.28125,0 0,19.5 8.0625,0 c 3.313,0 6,-2.66475 6,-5.96875 l 0,-35.9375 c 0,-3.307 -2.688,-5.96875 -6,-5.96875 l -36.03125,0 z"
   transform="translate(-14,-14)"
   id="path4079"
   inkscape:connector-curvature="0" />

</svg>